<svg width="72" height="70" xmlns="http://www.w3.org/2000/svg" xmlns:xlink="http://www.w3.org/1999/xlink" xml:space="preserve" overflow="hidden"><defs><clipPath id="clip0"><rect x="604" y="312" width="72" height="70"/></clipPath><clipPath id="clip1"><rect x="604" y="312" width="72" height="70"/></clipPath><clipPath id="clip2"><rect x="605" y="313" width="70" height="69"/></clipPath><clipPath id="clip3"><rect x="605" y="313" width="70" height="69"/></clipPath><clipPath id="clip4"><rect x="605" y="313" width="70" height="69"/></clipPath><clipPath id="clip5"><rect x="605" y="313" width="70" height="69"/></clipPath><clipPath id="clip6"><rect x="605" y="313" width="70" height="69"/></clipPath><clipPath id="clip7"><rect x="606" y="313" width="68" height="69"/></clipPath><clipPath id="clip8"><rect x="606" y="322" width="69" height="60"/></clipPath></defs><g clip-path="url(#clip0)" transform="translate(-604 -312)"><g clip-path="url(#clip1)"><g clip-path="url(#clip2)"><g clip-path="url(#clip3)"><g clip-path="url(#clip4)"><g clip-path="url(#clip5)"><g clip-path="url(#clip6)"><g clip-path="url(#clip7)"><g clip-path="url(#clip8)"><path d="M653.229 63.5724 653.229 60.4111 666.76 60.4111 666.76 63.5724 653.229 63.5724ZM663.559 81.8678C661.423 81.8678 659.769 81.2943 658.596 80.1474 657.42 79.0005 656.835 77.3574 656.835 75.2253L656.835 55.7683 660.676 55.7683 660.676 75.0635C660.676 76.2105 660.963 77.0927 661.537 77.7066 662.11 78.3204 662.93 78.6256 664 78.6256 665.202 78.6256 666.202 78.2911 667.002 77.6257L668.205 80.3863C667.617 80.8937 666.919 81.2686 666.102 81.5075 665.286 81.7464 664.44 81.8678 663.559 81.8678Z" fill="#FFFFFF" fill-rule="nonzero" fill-opacity="1" transform="matrix(1.01403 0 0 1 -97.1401 323.868)"/><path d="M688.176 60.2089C689.912 60.2089 691.441 60.5434 692.76 61.2088 694.081 61.8778 695.117 62.8887 695.863 64.2525 696.609 65.6126 696.984 67.3366 696.984 69.4172L696.984 81.6251 693.143 81.6251 693.143 69.8546C693.143 67.7998 692.643 66.2522 691.643 65.2119 690.643 64.1716 689.236 63.6496 687.419 63.6496 686.059 63.6496 684.872 63.918 683.857 64.451 682.842 64.984 682.063 65.7707 681.516 66.8109 680.968 67.8512 680.696 69.1451 680.696 70.6927L680.696 81.6215 676.854 81.6215 676.854 51.9196 680.696 51.9196 680.696 66.1308 679.935 64.6091C680.63 63.2232 681.695 62.1387 683.137 61.3669 684.578 60.5911 686.257 60.2052 688.18 60.2052Z" fill="#FFFFFF" fill-rule="nonzero" fill-opacity="1" transform="matrix(1.01403 0 0 1 -97.1401 323.868)"/><path d="M708.112 81.6251 708.112 60.4074 711.795 60.4074 711.795 66.1713 711.434 64.7304C712.023 63.2636 713.008 62.1425 714.398 61.3669 715.783 60.5911 717.492 60.2052 719.522 60.2052L719.522 63.929C719.36 63.9033 719.209 63.8886 719.062 63.8886L718.643 63.8886C716.588 63.8886 714.96 64.5025 713.758 65.7301 712.555 66.9579 711.957 68.7334 711.957 71.053L711.957 81.6215 708.115 81.6215Z" fill="#FFFFFF" fill-rule="nonzero" fill-opacity="1" transform="matrix(1.01403 0 0 1 -97.1401 323.868)"/><path d="M737.133 81.8678C734.998 81.8678 733.104 81.4009 731.451 80.4672 729.796 79.5335 728.487 78.2469 727.527 76.6037 726.569 74.9642 726.087 73.1006 726.087 71.02 726.087 68.9393 726.569 67.0425 727.527 65.4141 728.487 63.7856 729.796 62.51 731.451 61.591 733.104 60.6721 734.998 60.2089 737.133 60.2089 739.269 60.2089 741.129 60.6683 742.798 61.591 744.467 62.51 745.772 63.7782 746.72 65.3956 747.669 67.0094 748.142 68.8842 748.142 71.02 748.142 73.1557 747.669 74.9974 746.72 76.6258 745.772 78.2543 744.463 79.5335 742.798 80.4672 741.129 81.4009 739.239 81.8678 737.133 81.8678ZM737.133 78.5043C738.494 78.5043 739.714 78.1992 740.794 77.5853 741.875 76.9714 742.72 76.0965 743.339 74.9642 743.952 73.8284 744.257 72.5161 744.257 71.02 744.257 69.5238 743.948 68.1858 743.339 67.0756 742.724 65.9691 741.879 65.109 740.794 64.4951 739.714 63.8812 738.494 63.5761 737.133 63.5761 735.773 63.5761 734.556 63.8848 733.491 64.4951 732.425 65.109 731.568 65.9691 730.928 67.0756 730.289 68.1821 729.969 69.4981 729.969 71.02 729.969 72.5418 730.289 73.8284 730.928 74.9642 731.568 76.1001 732.421 76.9714 733.491 77.5853 734.556 78.1992 735.773 78.5043 737.133 78.5043Z" fill="#FFFFFF" fill-rule="nonzero" fill-opacity="1" transform="matrix(1.01403 0 0 1 -97.1401 323.868)"/><path d="M753.668 81.6251 762.796 69.7775 762.754 71.7404 754.068 60.4111 758.351 60.4111 764.997 69.1378 763.358 69.1378 770.004 60.4111 774.206 60.4111 765.397 71.8213 765.439 69.7811 774.647 81.6289 770.283 81.6289 763.277 72.3433 764.839 72.5822 757.954 81.6289 753.672 81.6289Z" fill="#FFFFFF" fill-rule="nonzero" fill-opacity="1" transform="matrix(1.01403 0 0 1 -97.1401 323.868)"/><path d="M782.568 89.6314C781.554 89.6314 780.565 89.466 779.606 89.1315 778.646 88.797 777.819 88.3117 777.124 87.6684L778.764 84.7865C779.296 85.2937 779.885 85.6797 780.524 85.9481 781.164 86.2128 781.845 86.3487 782.565 86.3487 783.498 86.3487 784.274 86.1098 784.888 85.6283 785.502 85.1467 786.075 84.2939 786.608 83.0661L787.928 80.1437 788.329 79.6621 796.655 60.4074 800.419 60.4074 790.129 83.7462C789.516 85.2423 788.829 86.4149 788.067 87.2678 787.307 88.1206 786.473 88.7271 785.564 89.0873 784.656 89.4476 783.656 89.6278 782.561 89.6278ZM787.612 82.3052 777.926 60.4074 781.928 60.4074 790.174 79.3019 787.612 82.3052Z" fill="#FFFFFF" fill-rule="nonzero" fill-opacity="1" transform="matrix(1.01403 0 0 1 -97.1401 323.868)"/><path d="M726.793 22.0632C726.734 22.0375 726.642 21.9934 726.514 21.9162 726.006 21.6074 725.495 21.3023 724.98 20.9972 724.955 20.9825 724.94 20.9531 724.94 20.9237L724.94 16.6522C724.948 13.6048 724.951 10.9728 724.94 9.80016 724.94 9.66048 724.948 9.52079 724.955 9.37743 724.98 8.84808 725.014 8.18641 724.731 7.46591 724.492 6.85938 723.882 6.45134 723.216 6.45134 723.061 6.45134 722.907 6.4734 722.76 6.51751 721.554 6.88511 720.537 7.52473 719.551 8.14229 719 8.48784 718.481 8.815 717.945 9.08334 715.93 10.1016 714.015 11.3073 712.379 12.3587 711.968 12.6233 711.626 12.7519 711.336 12.7519 711.096 12.7519 710.846 12.6638 710.567 12.4873 710.053 12.1601 709.523 11.8882 709.012 11.6271 708.464 11.3477 707.942 11.0794 707.479 10.767 707.483 10.767 707.487 10.7632 707.491 10.7596 709.332 9.68989 711.177 8.62017 713.023 7.55047 716.989 5.25298 721.092 2.87462 725.116 0.514638 725.716 0.165419 726.231 2.1222e-15 726.734 2.1222e-15 727.238 2.1222e-15 727.818 0.183799 728.454 0.558749 731.789 2.52908 735.207 4.47367 738.511 6.35577 740.658 7.57987 742.879 8.84073 745.052 10.098 745.173 10.1678 745.301 10.2376 745.426 10.3074 745.669 10.4398 745.89 10.5574 746.084 10.6971 744.993 11.4654 743.769 12.0572 742.478 12.6785L742.137 12.8438C742.022 12.8438 741.677 12.6233 741.471 12.491 741.328 12.3991 741.188 12.3108 741.052 12.2337 738.711 10.9066 736.336 9.53917 734.042 8.21949L731.498 6.75645C731.472 6.74175 731.447 6.72704 731.425 6.70866 731.23 6.58368 730.866 6.34842 730.351 6.34842 730.167 6.34842 729.983 6.37782 729.8 6.43664L729.627 6.49178 729.48 6.60206C728.601 7.26374 728.682 8.24155 728.723 8.71207 728.73 8.80029 728.74 8.88852 728.737 8.97674 728.727 10.1714 728.73 12.6968 728.734 15.6266 728.734 17.3323 728.734 19.1555 728.734 20.8759 728.734 20.9053 728.719 20.931 728.693 20.9457 728.174 21.2545 727.653 21.5633 727.138 21.8758 726.973 21.975 726.863 22.0265 726.793 22.0558Z" fill="#FFFFFF" fill-rule="nonzero" fill-opacity="1" transform="matrix(1.01403 0 0 1 -97.1401 323.868)"/><path d="M751.036 46.1997C750.874 46.1997 750.712 46.196 750.551 46.1886 750.367 46.185 750.187 46.1777 750.003 46.1777 737.956 46.185 725.918 46.185 713.879 46.185L706.012 46.185C705.656 46.185 705.299 46.185 704.946 46.1924 704.59 46.1924 704.233 46.1997 703.876 46.1997 703.487 46.1997 703.097 46.1997 702.712 46.185 700.935 46.1335 700.392 45.6262 700.384 44.0015 700.366 39.1896 700.366 34.2969 700.369 29.5623 700.369 25.1327 700.369 20.7031 700.359 16.2735 700.359 15.4354 700.612 14.9024 701.248 14.4246 701.535 14.2076 701.888 14.0937 702.267 14.0937 702.594 14.0937 702.921 14.182 703.212 14.3437L704.435 15.0385C706.259 16.0714 708.057 17.0896 709.843 18.1226 710.832 18.6923 711.821 19.2621 712.806 19.8283 715.669 21.4751 718.628 23.177 721.51 24.8863 721.525 24.8974 721.558 24.9158 721.558 24.9709 721.558 25.0297 721.522 25.0518 721.507 25.0629L717.945 27.1471C717.945 27.1471 717.911 27.1618 717.894 27.1618 717.875 27.1618 717.86 27.1582 717.841 27.1471 713.185 24.471 707.332 21.1185 705.902 20.365L704.285 19.5085 704.285 42.2444 749.293 42.2444 749.293 19.3173 740.573 24.3607 719.356 36.7745C719.062 36.9473 718.728 37.0392 718.386 37.0392 717.871 37.0392 717.39 36.8407 717.03 36.4768 716.607 36.054 716.408 35.4695 716.485 34.8777 716.562 34.2822 716.901 33.7712 717.419 33.4661L735.649 22.8021 735.649 22.7948C735.817 22.6955 736.74 22.1624 736.74 22.1624L737.732 21.5817 738.192 21.317C739.441 20.5929 745.048 17.347 745.048 17.347 746.746 16.3618 748.555 15.3178 750.359 14.34 750.653 14.182 750.981 14.0937 751.304 14.0937 752.04 14.0937 752.672 14.5091 752.955 15.1745 753.179 15.7075 753.289 16.2956 753.289 16.9793 753.282 23.9858 753.282 30.9958 753.282 38.0023L753.282 43.4575C753.282 44.9793 752.959 45.652 752.04 46.038 751.789 46.1446 751.488 46.1886 751.029 46.1886Z" fill="#FFFFFF" fill-rule="nonzero" fill-opacity="1" transform="matrix(1.01403 0 0 1 -97.1401 323.868)"/></g></g></g></g></g></g></g></g></g></svg>